{"title":"The.Fifth.Element.1997.SWESUB.DVDRip.XviD.AC3.(5.1).-Zen_Bud","uid":5632944,"size":1471354256,"categoryP":"video","categoryS":"movies","magnet":"?xt=urn:btih:9c1b9e6b205785a0900a8f4694b0fd63be549c99&amp;dn=The.Fifth.Element.1997.SWESUB.DVDRip.XviD.AC3.%285.1%29.-Zen_Bud&amp;tr=udp%3A%2F%2Ftracker.openbittorrent.com%3A80&amp;tr=udp%3A%2F%2Fopen.demonii.com%3A1337&amp;tr=udp%3A%2F%2Ftracker.coppersurfer.tk%3A6969&amp;tr=udp%3A%2F%2Fexodus.desync.com%3A6969","seeders":2,"leechers":1,"uploader":"Zen_Bud","files":-1,"time":1276761309,"description":"General\nComplete name                    : The.Fifth.Element.avi\nFormat                           : AVI\nFile size                        : 1.37 GiB\nDuration                         : 2h 1mn\nOverall bit rate                 : 1 618 Kbps\n\nVideo\n\nFormat                           : MPEG-4 Visual\nCodec ID/Hint                    : XviD\nDuration                         : 2h 1mn\nBit rate                         : 1 159 Kbps\nWidth                            : 704 pixels\nHeight                           : 500 pixels\nDisplay aspect ratio             : 2.048\nStream size                      : 1 005 MiB (72%)\nWriting library                  : XviD 1.1.2 (UTC 2006-11-01)\n\nAudio\n\nFormat                           : AC-3\nDuration                         : 2h 1mn\nBit rate                         : 448 Kbps\nChannel(s)                       : 6 channels\nChannel positions                : Front: L C R, Side: L R, LFE\nSampling rate                    : 48.0 KHz\nStream size                      : 389 MiB (28%)\n &lt;a href=&quot;\nhttp://www.imdb.com/media/rm2761858304/tt0119116&quot; rel=&quot;nofollow&quot; target=&quot;_NEW&quot;&gt;\nhttp://www.imdb.com/media/rm2761858304/tt0119116&lt;/a&gt;","torrent":{"xt":"urn:btih:9c1b9e6b205785a0900a8f4694b0fd63be549c99","amp;dn":"The.Fifth.Element.1997.SWESUB.DVDRip.XviD.AC3.%285.1%29.-Zen_Bud","amp;tr":["udp%3A%2F%2Ftracker.openbittorrent.com%3A80","udp%3A%2F%2Fopen.demonii.com%3A1337","udp%3A%2F%2Ftracker.coppersurfer.tk%3A6969","udp%3A%2F%2Fexodus.desync.com%3A6969"],"infoHash":"9c1b9e6b205785a0900a8f4694b0fd63be549c99","infoHashBuffer":{"type":"Buffer","data":[156,27,158,107,32,87,133,160,144,10,143,70,148,176,253,99,190,84,156,153]},"announce":[],"urlList":[]}}